<?xml version="1.0" encoding="iso-8859-1"?>
<!-- Generator: Adobe Illustrator 16.0.0, SVG Export Plug-In . SVG Version: 6.00 Build 0)  -->
<!DOCTYPE svg PUBLIC "-//W3C//DTD SVG 1.1//EN" "http://www.w3.org/Graphics/SVG/1.1/DTD/svg11.dtd">
<svg version="1.1" xmlns="http://www.w3.org/2000/svg" xmlns:xlink="http://www.w3.org/1999/xlink" x="0px" y="0px"
	 width="42.754px" height="42.687px" viewBox="0 0 42.754 42.687" style="enable-background:new 0 0 42.754 42.687;"
	 xml:space="preserve">
<g id="Layer_7">
	<g>
		<path style="fill-rule:evenodd;clip-rule:evenodd;fill:#5E6973;" d="M22.405,39.413C12.608,33.463-0.593,12.007,4.35,5.98
			c6.759-8.241,16.501,7.783,17.975,8.803C29.95,1.368,41.938-0.423,38.546,14.879C36.892,22.354,31.33,30.617,22.405,39.413
			L22.405,39.413z M22.097,42.687c11.778-8.479,20.636-18.6,20.657-33.693C42.772-1.225,30.777-3.189,22.723,8.43
			c-2.82-2.846-10.54-10.588-17.669-7.855C-8.834,5.899,8.913,37.49,22.097,42.687L22.097,42.687z"/>
		<path style="fill-rule:evenodd;clip-rule:evenodd;fill:#FFFFFF;" d="M22.405,39.413C12.608,33.463-0.593,12.007,4.35,5.98
			c6.759-8.241,16.501,7.783,17.975,8.803C29.95,1.368,41.938-0.423,38.546,14.879C36.892,22.354,31.33,30.617,22.405,39.413
			L22.405,39.413z"/>
	</g>
</g>
<g id="Layer_1">
</g>
</svg>
