<?xml version="1.0" encoding="iso-8859-1"?>
<!-- Generator: Adobe Illustrator 16.0.0, SVG Export Plug-In . SVG Version: 6.00 Build 0)  -->
<!DOCTYPE svg PUBLIC "-//W3C//DTD SVG 1.1//EN" "http://www.w3.org/Graphics/SVG/1.1/DTD/svg11.dtd">
<svg version="1.1" xmlns="http://www.w3.org/2000/svg" xmlns:xlink="http://www.w3.org/1999/xlink" x="0px" y="0px" width="44.14px"
	 height="47.282px" viewBox="0 0 44.14 47.282" style="enable-background:new 0 0 44.14 47.282;" xml:space="preserve">
<g id="Layer_23">
	<g>
		<path style="fill:#EFEBE1;" d="M43.053,10.06c-2.465-4.714-7.046-5.68-10.998-4.808c-3.991,0.884-8.36,5.856-9.796,9.99
			c-2.094-5.199-3.332-13.439-8.726-14.999C9.408-0.95,1.354,2.369,0.24,7.328c-1.462,6.514,4.089,15.132,7.645,20.018
			c2.005,2.758,5.764,6.023,8.269,9.544c3.761,5.286,4.821,9.128,5.917,10.249c1.389,1.42,8.248-8.12,10.67-10.91
			c2.664-3.069,5.132-6.133,7.102-9.696C42.596,21.555,45.887,15.481,43.053,10.06z"/>
	</g>
</g>
<g id="Layer_1">
</g>
</svg>
